# xmcd
#
# Track frame offsets: 
#        167
#        1105
#        13212
#        29442
#        46157
#        57735
#        70330
#        92392
#        123495
#        136712
#        151495
#        162800
#        172510
#        185357
#        197235
#        221212
#        236697
#        246662
#
# Disc length: 3509 seconds
#
# Revision: 5
# Processed by: cddbd v1.5.2PL0 Copyright (c) Steve Scherf et al.
# Submitted via: ExactAudioCopy v0.99pb5
#
DISCID=f40db312
DTITLE=Kaiser and Mansfield - Slow Burn
DYEAR=1993
DGENRE=Blues
TTITLE0=Seen And Unseen
TTITLE1=Cover Me
TTITLE2=You're Gonna Need Somebody On Your Bond
TTITLE3=Threw It Away
TTITLE4=Witness Cloud
TTITLE5=God Don't Lie
TTITLE6=Jesus On The Mainline
TTITLE7=Slow Burn
TTITLE8=Blind Willie Glickman
TTITLE9=On My Dyin' Bed
TTITLE10=Great White Throne
TTITLE11=Wondeful God
TTITLE12=This Little Light
TTITLE13=Ps 99
TTITLE14=Been Down That Road
TTITLE15=Slidin'
TTITLE16=Blessed Be
TTITLE17=Long Way From Home
EXTD=
EXTT0=
EXTT1=
EXTT2=
EXTT3=
EXTT4=
EXTT5=
EXTT6=
EXTT7=
EXTT8=
EXTT9=
EXTT10=
EXTT11=
EXTT12=
EXTT13=
EXTT14=
EXTT15=
EXTT16=
EXTT17=
PLAYORDER=
